<?xml version="1.0" standalone="no"?>
<!DOCTYPE svg PUBLIC "-//W3C//DTD SVG 20010904//EN"
 "http://www.w3.org/TR/2001/REC-SVG-20010904/DTD/svg10.dtd">
<svg version="1.0" xmlns="http://www.w3.org/2000/svg"
 width="490.000000pt" height="490.000000pt" viewBox="0 0 490.000000 490.000000"
 preserveAspectRatio="xMidYMid meet">
<metadata>
Created by potrace 1.14, written by Peter Selinger 2001-2017
</metadata>
<g transform="translate(0.000000,490.000000) scale(0.100000,-0.100000)"
fill="#000000" stroke="none">
<path d="M1426 4883 c-3 -3 -36 -8 -73 -9 -79 -4 -146 -11 -188 -19 -16 -3
-47 -7 -68 -10 -20 -2 -45 -8 -55 -13 -9 -5 -22 -7 -29 -5 -6 2 -38 -10 -70
-26 -32 -17 -65 -31 -74 -31 -9 0 -22 -7 -29 -15 -7 -8 -23 -15 -37 -15 -13 0
-22 -4 -18 -9 7 -12 -31 -25 -46 -16 -6 4 -13 -2 -16 -14 -6 -22 -43 -30 -43
-10 0 8 -5 7 -16 -2 -30 -24 -119 -70 -132 -67 -4 1 -15 -2 -24 -5 -10 -4 -25
-9 -33 -12 -8 -2 -15 -9 -15 -15 0 -7 9 -9 23 -4 19 6 18 3 -7 -16 -23 -19
-32 -21 -46 -12 -14 9 -21 8 -31 -4 -6 -8 -27 -22 -45 -30 -19 -9 -34 -20 -34
-25 0 -5 -9 -9 -19 -9 -15 0 -21 -8 -23 -32 -2 -17 -9 -33 -16 -36 -9 -3 -13
3 -12 14 4 35 0 42 -20 37 -24 -6 -26 -35 -4 -57 14 -15 14 -17 -3 -22 -10 -3
-28 -10 -40 -16 -11 -6 -26 -7 -33 -3 -7 4 -13 -1 -17 -14 -4 -16 -9 -19 -23
-11 -14 8 -19 5 -24 -13 -15 -57 -2 -120 19 -87 14 22 22 8 15 -24 -12 -52
-23 -65 -31 -36 -5 17 -7 4 -8 -37 -1 -36 3 -63 9 -63 9 0 14 26 11 60 -1 11
3 9 14 -5 9 -11 14 -29 11 -40 -3 -11 -6 -26 -6 -32 0 -7 -9 -13 -20 -13 -15
0 -20 -7 -20 -26 0 -25 0 -25 28 -9 56 34 64 43 54 60 -5 9 -7 28 -4 41 4 20
6 21 19 9 8 -8 11 -19 8 -25 -10 -16 21 -12 35 5 7 8 21 15 31 15 26 0 32 17
12 30 -15 9 -13 10 14 6 30 -5 32 -3 47 37 11 31 15 36 15 18 1 -17 5 -22 17
-17 9 3 20 6 25 6 6 0 9 10 7 22 -2 11 3 23 11 26 8 3 11 0 7 -7 -16 -26 7
-31 30 -6 13 14 24 22 24 17 0 -6 7 -13 16 -16 13 -5 15 -1 9 21 -6 26 -5 27
8 9 10 -13 16 -16 21 -7 4 6 12 9 17 5 6 -3 9 6 7 23 -3 26 0 28 37 31 22 2
44 10 48 18 11 20 25 17 30 -6 4 -18 5 -18 5 2 0 39 2 43 13 28 8 -12 12 -12
16 -2 4 10 8 10 21 0 11 -10 16 -10 19 -1 2 7 11 9 19 6 8 -3 14 0 14 6 0 6 5
11 11 11 14 0 39 26 39 41 0 9 3 9 14 0 10 -9 20 -9 40 0 23 11 29 9 51 -11
27 -25 32 -21 14 12 -9 18 -8 19 10 13 12 -3 21 -2 21 3 0 5 14 8 30 7 17 -1
30 2 30 7 0 5 10 6 22 3 17 -6 20 -4 15 9 -5 13 1 16 29 16 20 0 33 4 29 10
-3 5 0 18 6 28 12 19 13 19 36 -6 12 -14 23 -20 23 -15 0 6 12 14 27 18 15 3
31 12 35 18 5 8 8 6 8 -6 0 -23 49 -19 68 6 7 9 19 17 26 17 8 0 26 7 42 15
19 10 30 11 35 4 4 -7 20 -4 46 9 25 11 53 17 72 14 18 -2 31 0 31 6 0 6 12 9
28 8 15 -2 38 2 51 7 19 9 26 8 36 -6 16 -22 29 -22 22 2 -6 26 11 55 26 42
11 -9 114 -31 145 -31 12 0 12 3 2 15 -7 8 -28 15 -46 15 -26 0 -34 4 -34 18
0 9 -9 23 -21 30 -19 12 -20 11 -14 -8 7 -21 7 -21 -25 -3 -18 10 -41 22 -51
28 -24 12 -24 21 1 48 20 21 21 21 68 3 26 -10 57 -18 69 -17 12 0 34 -4 48
-9 33 -12 32 -3 -2 24 -39 30 -70 46 -138 68 -33 10 -67 22 -75 25 -8 4 -33 8
-55 9 -22 2 -70 5 -106 8 -37 3 -70 2 -73 -1z m239 -96 c11 -9 14 -16 8 -20
-6 -4 -22 2 -34 13 -18 14 -20 19 -8 20 8 0 23 -6 34 -13z m-265 -148 c0 -12
-27 -11 -35 1 -11 17 5 32 21 19 8 -6 14 -15 14 -20z m61 18 c-1 -12 -15 -9
-19 4 -3 6 1 10 8 8 6 -3 11 -8 11 -12z m-364 -83 c-3 -3 -12 -4 -19 -1 -8 3
-5 6 6 6 11 1 17 -2 13 -5z m-217 -99 c0 -8 -4 -15 -10 -15 -5 0 -10 7 -10 15
0 8 5 15 10 15 6 0 10 -7 10 -15z m-90 -7 c0 -7 -5 -20 -10 -28 -8 -12 -10 -9
-10 13 0 15 5 27 10 27 6 0 10 -6 10 -12z m-374 -12 c10 -10 11 -15 2 -18 -8
-3 -7 -11 5 -28 9 -14 18 -20 18 -15 1 6 2 15 4 20 1 6 3 18 3 28 3 26 19 20
26 -9 l7 -27 24 23 c23 22 23 22 34 2 6 -12 11 -29 10 -39 0 -15 -2 -14 -9 4
-6 15 -15 20 -29 16 -12 -3 -21 -10 -21 -17 0 -7 -4 -6 -9 2 -7 11 -11 11 -24
-2 -8 -9 -20 -16 -26 -16 -5 0 -11 -10 -13 -22 -3 -20 -4 -21 -20 -5 -19 19
-64 19 -80 -1 -9 -10 -9 -15 0 -21 21 -13 3 -67 -31 -91 -24 -19 -34 -21 -48
-11 -27 16 -31 14 -24 -11 4 -16 3 -19 -3 -9 -12 17 -52 -2 -52 -24 0 -8 -4
-15 -8 -15 -5 0 -10 22 -11 48 -1 39 3 53 20 68 22 19 22 19 10 -3 -6 -12 -11
-24 -11 -27 0 -12 31 -6 35 7 3 6 24 13 47 14 48 3 60 16 55 58 -6 39 1 55 19
48 8 -3 14 1 14 11 0 21 26 20 39 -1 6 -10 11 -13 12 -8 4 19 6 40 8 63 1 26
7 27 27 8z m314 -52 c0 -8 -4 -12 -10 -9 -5 3 -10 10 -10 16 0 5 5 9 10 9 6 0
10 -7 10 -16z m-463 -71 c-3 -17 -10 -27 -18 -25 -28 7 -33 22 -13 37 28 21
35 18 31 -12z m103 0 c-1 -21 -13 -53 -21 -53 -10 0 -12 43 -2 53 9 9 23 9 23
0z m-150 -22 c0 -12 -20 -25 -27 -18 -7 7 6 27 18 27 5 0 9 -4 9 -9z"/>
<path d="M460 4680 c0 -5 7 -10 16 -10 8 0 12 5 9 10 -3 6 -10 10 -16 10 -5 0
-9 -4 -9 -10z"/>
<path d="M200 4580 c-12 -8 -11 -10 8 -10 12 0 22 5 22 10 0 13 -11 13 -30 0z"/>
<path d="M1724 4561 c-2 -3 -28 -6 -57 -8 -96 -6 -134 -10 -143 -15 -5 -3 -29
-12 -54 -18 -42 -12 -56 -15 -118 -23 -12 -2 -28 -9 -34 -15 -7 -7 -22 -12
-35 -12 -13 0 -23 -4 -23 -10 0 -5 -15 -10 -32 -10 -18 0 -40 -4 -47 -9 -9 -6
-22 -6 -33 0 -12 6 -18 6 -18 -1 0 -5 -7 -10 -15 -10 -8 0 -15 -5 -15 -12 0
-6 -3 -9 -6 -6 -3 4 -21 0 -40 -8 -19 -8 -37 -15 -41 -15 -5 -1 -12 -3 -18 -5
-114 -39 -170 -52 -183 -42 -11 10 -13 8 -10 -8 2 -15 -4 -20 -29 -22 -18 -2
-33 -7 -33 -12 0 -5 -16 -12 -35 -16 -19 -3 -55 -19 -80 -35 -25 -16 -50 -29
-56 -29 -6 0 -44 -18 -85 -40 -41 -22 -79 -40 -85 -40 -5 0 -19 -9 -31 -20
-12 -10 -25 -17 -30 -14 -4 3 -8 0 -8 -6 0 -6 -12 -16 -27 -23 -16 -6 -34 -20
-41 -29 -7 -10 -17 -18 -21 -18 -10 0 -85 -64 -128 -109 l-33 -35 0 -394 c0
-336 2 -396 15 -408 13 -14 15 -13 15 10 0 35 20 33 21 -1 2 -26 2 -27 6 -4 5
25 33 61 33 42 0 -6 5 -11 11 -11 6 0 8 7 5 15 -3 9 1 18 9 21 8 4 15 13 15
22 0 13 4 11 16 -6 20 -29 36 -28 28 2 -4 19 -1 26 15 31 14 4 21 15 21 31 0
14 4 23 9 19 6 -3 14 3 20 12 9 16 10 16 11 1 0 -9 5 -20 10 -23 7 -4 8 3 4
20 -5 19 -2 30 12 40 17 12 22 11 41 -7 13 -12 23 -27 23 -35 0 -17 -26 -17
-34 0 -3 6 -3 2 0 -10 4 -17 1 -23 -10 -23 -9 0 -16 -5 -16 -12 0 -6 -7 -20
-16 -30 -16 -17 -18 -17 -29 -1 -12 16 -14 14 -28 -18 -9 -23 -27 -41 -49 -52
-19 -9 -47 -35 -63 -57 -34 -49 -60 -52 -81 -7 -15 32 -14 19 2 -40 4 -14 2
-23 -5 -23 -8 0 -11 -49 -11 -159 0 -129 3 -161 15 -171 8 -7 15 -18 14 -24 0
-7 -2 -6 -6 2 -2 6 -9 12 -14 12 -5 0 -9 -529 -9 -1325 l0 -1325 768 0 c499 0
762 4 752 10 -8 5 -22 10 -31 10 -9 0 -22 7 -29 15 -7 9 -20 13 -29 10 -9 -3
-28 5 -41 18 -14 12 -34 21 -46 19 -12 -2 -33 9 -52 27 -17 17 -42 33 -55 36
-14 4 -29 17 -35 29 -6 13 -31 33 -56 45 -25 11 -45 25 -43 29 3 9 -55 67 -82
82 -11 5 -22 23 -25 40 -3 16 -8 42 -11 58 -4 18 -16 32 -35 40 -16 8 -40 27
-52 43 -13 16 -42 50 -66 76 -24 26 -46 60 -49 75 -3 16 -9 28 -14 28 -10 0
-59 45 -59 55 0 4 -12 18 -27 31 -22 19 -25 26 -15 36 17 17 15 31 -3 24 -10
-3 -15 1 -15 14 0 10 -4 21 -9 24 -4 3 -11 20 -15 38 -3 17 -14 41 -24 52 -16
18 -16 19 1 13 15 -6 16 -4 7 14 -6 11 -18 23 -25 26 -8 3 -14 15 -14 26 1 29
-28 173 -40 195 -5 9 -12 41 -16 71 -5 40 -4 56 6 62 12 8 12 10 0 18 -19 12
-21 62 -3 83 12 15 12 23 -4 65 -10 26 -24 59 -31 72 -9 20 -9 28 2 44 8 11
11 34 9 55 -9 74 31 180 102 269 87 108 290 297 374 348 145 88 175 102 227
108 51 6 113 -6 124 -25 5 -7 9 -10 9 -6 0 4 24 -1 53 -11 28 -10 74 -23 101
-30 43 -10 50 -10 61 5 11 16 15 16 56 -3 24 -11 70 -26 101 -33 65 -15 79 -8
119 57 24 38 40 40 103 13 50 -21 58 -41 24 -64 -22 -15 -22 -16 15 -31 20 -8
54 -15 77 -15 36 0 41 3 54 35 8 19 19 35 25 35 5 0 22 13 37 29 15 16 44 34
65 41 22 7 39 19 39 26 0 7 9 18 20 24 11 6 20 7 20 3 0 -4 6 1 13 12 10 12
22 16 40 13 16 -3 31 0 38 8 9 11 8 14 0 14 -9 0 -9 5 -1 20 7 14 7 20 0 21
-5 1 -16 2 -22 3 -7 0 -14 10 -16 20 -3 14 0 17 12 13 11 -4 19 0 23 10 4 9 1
19 -5 21 -7 2 -12 15 -12 29 0 20 -4 23 -20 18 -14 -5 -20 -2 -20 10 0 8 -11
20 -24 25 -13 5 -35 20 -49 34 -15 14 -33 26 -42 26 -9 0 -26 6 -38 14 -12 8
-44 22 -72 32 -27 9 -53 22 -57 29 -4 7 -23 16 -41 19 -20 4 -34 12 -34 21 0
54 151 83 382 73 17 0 46 1 65 2 34 4 189 -4 315 -16 82 -7 252 -43 284 -60
14 -8 31 -14 37 -14 35 0 116 -135 138 -229 8 -33 16 -63 19 -68 5 -7 -7 -9
-76 -13 -9 -1 -24 6 -33 14 -17 17 -59 21 -68 7 -3 -5 -15 -7 -27 -4 -11 3
-30 1 -42 -5 -12 -6 -46 -18 -75 -28 -29 -10 -65 -30 -80 -44 -15 -15 -34 -29
-42 -32 -9 -3 -31 -35 -49 -71 -30 -58 -32 -70 -27 -123 4 -33 13 -84 21 -114
8 -30 16 -66 17 -80 2 -17 8 -24 20 -22 10 1 31 -4 47 -13 34 -17 41 -18 41
-7 0 4 -23 22 -50 41 -28 19 -50 42 -50 51 0 16 4 16 56 -3 l57 -21 24 30 c13
16 26 39 29 52 8 29 15 28 48 -7 22 -23 27 -36 22 -55 -5 -21 -2 -25 21 -28
24 -3 29 -9 40 -53 6 -27 12 -88 12 -135 2 -146 14 -310 23 -310 4 0 8 7 8 15
0 9 10 15 26 15 21 0 24 -4 19 -20 -5 -16 0 -22 22 -31 l28 -10 -25 -19 -25
-19 25 -9 c14 -5 28 -8 32 -6 4 3 44 -3 90 -11 180 -33 188 -36 188 -60 0 -11
8 -13 31 -8 32 6 32 6 25 -29 -8 -42 -1 -46 64 -38 32 5 40 8 28 14 -9 4 -22
5 -28 1 -5 -3 -10 2 -10 14 0 11 -6 24 -14 28 -7 4 -16 25 -20 45 -6 31 -4 38
10 38 10 0 14 -5 10 -15 -8 -23 42 -32 57 -11 7 10 28 18 50 19 20 1 37 5 37
10 0 4 7 7 15 7 8 0 15 -6 15 -13 0 -8 10 -19 23 -25 29 -15 107 -23 107 -11
0 5 8 9 17 9 16 0 16 1 1 16 -12 12 -20 14 -36 5 -29 -15 -42 -14 -42 5 0 13
14 14 106 9 58 -3 117 -10 131 -16 36 -13 16 -31 -22 -21 -25 7 -67 8 -95 3
-3 -1 2 -6 10 -11 8 -6 27 -7 42 -4 14 3 29 0 33 -5 3 -6 26 -11 51 -11 32 0
44 4 44 15 0 8 7 15 15 15 19 0 16 -41 -4 -56 -15 -12 -23 -42 -14 -57 3 -4
11 0 17 9 9 12 15 14 20 6 9 -14 56 -16 56 -3 0 6 -5 13 -11 16 -7 5 -5 11 5
18 8 7 16 21 18 32 4 22 38 34 38 13 0 -23 21 -38 40 -28 32 17 42 -2 27 -59
-7 -28 -17 -52 -22 -51 -4 1 -16 -21 -25 -47 -9 -26 -21 -48 -27 -48 -6 0 -15
-3 -19 -8 -4 -4 -16 -7 -26 -7 -10 0 -27 -9 -38 -20 -11 -11 -31 -20 -45 -20
-14 0 -25 -4 -25 -10 0 -5 24 -10 54 -10 45 0 56 3 61 19 7 23 30 18 33 -7 7
-67 21 -132 35 -157 13 -26 14 -42 4 -121 -7 -50 -17 -97 -23 -105 -7 -8 -22
-52 -34 -99 -12 -47 -27 -101 -32 -120 -6 -19 -10 -53 -10 -75 2 -57 -6 -88
-22 -82 -9 4 -14 -2 -14 -16 -1 -32 -17 -99 -30 -124 -7 -12 -12 -34 -12 -50
l0 -28 25 30 c13 17 29 43 36 58 7 15 16 24 20 20 12 -12 -1 -83 -16 -83 -6 0
-20 -9 -30 -20 -10 -12 -25 -18 -33 -15 -10 3 -12 -3 -10 -23 2 -15 10 -28 18
-28 8 -1 23 -2 33 -3 13 -1 17 -10 17 -41 0 -33 3 -40 20 -40 10 0 31 12 45
27 24 27 25 27 25 5 0 -29 24 -29 44 0 l16 22 0 -28 0 -28 36 21 c46 27 56 19
21 -17 -29 -30 -33 -42 -17 -42 6 0 10 7 10 15 0 8 5 15 10 15 6 0 10 -9 10
-20 0 -19 7 -20 94 -20 53 0 98 4 101 10 3 6 11 10 16 10 6 0 7 -4 4 -10 -3
-5 1 -10 10 -10 11 0 15 5 12 14 -9 24 18 49 52 49 28 0 32 3 26 21 -25 81
-27 116 -10 198 10 46 21 110 24 144 3 33 14 72 24 87 16 25 17 85 17 922 l0
895 -25 0 c-13 0 -27 5 -30 10 -3 6 -17 10 -30 10 -15 0 -26 7 -30 20 -8 25
-21 26 -34 3 -8 -14 -14 -16 -28 -7 -25 15 -28 41 -8 61 16 16 16 17 -1 30
-12 9 -21 10 -30 2 -16 -13 -44 -5 -72 22 -28 25 -27 31 1 45 16 7 31 7 51 -1
33 -14 101 -11 133 6 16 9 30 9 54 0 47 -16 49 -15 49 38 0 38 -4 50 -17 54
-90 27 -173 77 -173 102 0 7 -7 18 -15 25 -9 7 -13 15 -11 18 6 6 -63 42 -81
42 -7 0 -13 9 -13 20 0 17 -7 19 -72 18 -40 -1 -63 -3 -50 -5 21 -4 40 -28 30
-38 -2 -2 -21 0 -43 5 -21 5 -57 5 -80 1 -51 -10 -111 7 -109 30 1 14 -19 17
-125 22 -69 4 -178 7 -241 7 -63 0 -162 7 -220 15 -129 18 -123 17 -114 3 16
-26 21 -88 8 -99 -21 -18 -31 -3 -38 58 -14 120 -91 290 -157 346 -41 36 -138
87 -163 87 -8 0 -16 6 -19 14 -9 23 -61 15 -65 -9 -6 -33 -16 -35 -68 -16 -98
38 -239 54 -474 54 l-155 1 -1 80 c0 104 -34 298 -69 396 -22 62 -12 100 25
100 42 0 44 14 10 53 -33 38 -36 47 -17 47 13 0 50 -53 61 -88 6 -18 15 -22
49 -22 122 -1 381 -60 496 -113 48 -22 60 -42 91 -161 11 -39 26 -96 35 -126
9 -30 17 -71 18 -90 2 -29 6 -35 25 -35 12 0 30 -8 41 -17 12 -10 23 -13 32
-7 18 12 32 11 24 0 -8 -15 15 -25 28 -12 15 15 37 14 37 -2 0 -20 49 -67 70
-67 10 0 24 -8 29 -17 9 -16 10 -16 11 4 0 12 -5 34 -12 50 -6 15 -12 33 -13
39 -6 26 -49 140 -57 149 -4 5 -8 17 -8 26 0 9 -22 59 -50 110 -27 52 -55 108
-63 124 -8 17 -29 44 -48 61 -19 17 -42 44 -51 60 -9 16 -31 37 -50 48 -18 10
-51 38 -73 62 -23 24 -51 44 -62 44 -11 0 -26 7 -34 16 -7 8 -26 22 -43 31
-40 21 -195 73 -217 73 -9 0 -29 7 -45 15 -20 10 -32 11 -41 3 -17 -14 -16
-28 2 -28 8 0 15 -4 15 -10 0 -6 -10 -5 -25 2 -14 6 -25 16 -25 23 0 7 -17 11
-47 9 -27 -1 -55 2 -64 7 -9 4 -19 5 -23 2 -3 -4 -28 -7 -55 -8 -27 -1 -63 -8
-80 -15 -17 -7 -45 -10 -62 -8 -28 4 -30 3 -24 -21 6 -23 5 -24 -7 -9 -12 17
-18 17 -100 -5 -69 -19 -88 -21 -88 -10 0 7 -7 13 -15 13 -8 0 -15 -7 -15 -16
0 -14 -3 -14 -15 -4 -9 7 -18 10 -22 6 -3 -3 -1 -6 5 -6 7 0 12 -8 12 -19 0
-14 -10 -20 -42 -24 -24 -3 -59 -14 -78 -24 -37 -18 -70 -18 -82 1 -5 6 -8 2
-8 -10 0 -24 -21 -37 -45 -28 -11 4 -15 0 -15 -16 0 -22 -1 -23 -20 -5 -19 18
-20 17 -20 -6 0 -24 0 -24 -25 6 -25 31 -33 28 -15 -6 8 -15 7 -19 -5 -19 -8
0 -15 -4 -15 -10 0 -21 -26 -9 -53 25 -20 25 -24 35 -13 35 8 0 18 -4 21 -10
11 -18 26 -10 20 10 -5 15 -2 20 12 21 24 2 25 2 47 -7 15 -6 18 -4 13 8 -9
25 4 30 26 11 11 -10 17 -12 13 -5 -11 18 18 42 43 35 15 -4 21 -1 21 12 0 13
6 16 24 11 15 -4 26 -1 29 8 6 15 57 28 57 15 0 -5 5 -9 11 -9 6 0 9 6 7 12
-3 7 6 18 20 25 31 17 30 17 35 -9 4 -22 4 -22 6 -2 1 25 38 39 59 22 10 -9
12 -8 10 3 -2 9 5 13 20 12 12 -2 22 1 22 6 0 5 9 7 20 4 11 -3 20 -1 20 4 0
10 18 13 85 16 25 1 45 5 45 10 0 4 6 7 14 7 8 0 16 5 18 11 2 6 25 12 52 13
28 2 51 8 56 16 7 12 13 12 34 1 14 -8 35 -11 51 -7 14 4 44 2 67 -5 34 -9 49
-8 86 7 42 15 45 16 54 0 5 -9 13 -14 17 -11 5 2 14 -2 21 -10 7 -8 23 -15 36
-15 12 0 26 -5 29 -10 4 -6 11 -8 16 -4 13 8 79 -15 108 -37 29 -23 51 -24 51
-3 0 9 5 12 11 8 7 -4 10 -1 7 7 -3 8 -13 19 -24 24 -10 6 -31 22 -46 38 -15
15 -36 27 -47 27 -11 0 -21 3 -23 8 -1 4 -37 24 -79 45 -80 39 -125 48 -116
22 5 -12 2 -12 -18 -3 -13 6 -22 15 -19 19 3 5 0 9 -7 9 -7 0 -34 22 -59 49
l-47 50 35 8 34 8 -42 23 c-23 12 -45 22 -50 22 -13 0 -18 -38 -7 -49 8 -8 6
-11 -5 -11 -10 0 -18 -10 -20 -22 -2 -15 -9 -22 -19 -20 -9 1 -22 -5 -29 -13
-13 -16 -35 -21 -26 -6 3 4 -14 4 -39 -2 -34 -8 -49 -7 -67 4 -27 18 -58 14
-58 -7 0 -8 -1 -14 -2 -15 -50 -10 -158 -24 -158 -20 1 22 21 32 55 29 24 -2
40 2 43 10 2 6 10 12 18 12 8 0 17 6 20 14 4 11 22 14 70 13 35 -1 56 -4 47
-8 -15 -5 -15 -6 -1 -12 22 -8 29 2 22 29 -7 29 7 31 24 4 7 -11 19 -20 27
-20 13 0 14 4 5 20 -12 22 -9 23 33 20 26 -2 27 0 15 19 -11 18 -11 23 2 31
22 14 6 22 -52 27 -29 2 -62 8 -73 13 -49 22 -146 32 -277 28 -77 -1 -142 -5
-144 -7z m86 -42 c0 -7 10 -9 26 -5 15 4 32 2 41 -6 18 -15 55 -17 65 -3 9 13
45 -23 50 -50 2 -13 -3 -20 -17 -23 -33 -5 -69 -26 -88 -50 -10 -12 -22 -20
-26 -17 -5 2 -6 -7 -3 -22 4 -24 2 -25 -22 -21 -14 3 -29 1 -32 -3 -3 -5 -16
-9 -29 -9 -13 0 -27 -4 -30 -10 -3 -5 -21 -10 -40 -10 -19 0 -37 -5 -40 -10
-10 -16 -77 -41 -105 -39 -14 1 -44 -3 -68 -10 -41 -12 -62 -9 -62 9 0 9 50
27 90 32 14 2 31 7 38 12 8 5 20 2 31 -8 17 -16 19 -15 24 3 3 12 20 24 46 32
22 7 41 15 41 19 0 3 20 17 45 29 25 12 45 26 45 31 0 17 -18 20 -30 5 -9 -11
-16 -12 -26 -4 -7 6 -23 9 -36 8 -35 -4 -64 9 -83 37 -19 29 -12 43 13 28 13
-9 21 -7 35 9 9 11 20 17 23 14 4 -3 13 0 21 8 8 8 28 15 44 15 16 0 29 5 29
10 0 6 7 10 15 10 8 0 15 -5 15 -11z m-440 -129 c0 -5 -4 -10 -10 -10 -5 0
-10 5 -10 10 0 6 5 10 10 10 6 0 10 -4 10 -10z m974 -16 c-7 -3 -10 -15 -7
-27 5 -21 5 -21 -13 -4 -17 15 -17 19 -4 27 8 5 20 9 25 9 6 0 5 -3 -1 -5z
m50 -42 c-20 -5 -39 12 -30 27 4 6 14 4 27 -7 17 -15 18 -17 3 -20z m-834 14
c0 -15 -21 -26 -52 -26 -19 0 -19 1 3 20 28 23 49 26 49 6z m-170 -40 c0 -2
-7 -6 -15 -10 -8 -3 -15 -1 -15 4 0 6 7 10 15 10 8 0 15 -2 15 -4z m458 -64
c3 -9 -2 -13 -14 -10 -9 1 -19 9 -22 16 -3 9 2 13 14 10 9 -1 19 -9 22 -16z
m-548 -17 c0 -8 6 -12 14 -9 8 3 17 0 22 -7 5 -8 3 -10 -5 -4 -8 4 -21 -1 -32
-14 -11 -12 -27 -21 -37 -21 -16 1 -15 2 1 11 12 7 16 17 12 30 -7 22 2 42 16
34 5 -4 9 -13 9 -20z m120 0 c10 -13 9 -15 -9 -15 -12 0 -21 6 -21 15 0 8 4
15 9 15 5 0 14 -7 21 -15z m1280 -16 c7 -11 9 -23 7 -26 -8 -7 -47 30 -41 39
9 14 23 9 34 -13z m-1330 1 c0 -5 -4 -10 -10 -10 -5 0 -10 5 -10 10 0 6 5 10
10 10 6 0 10 -4 10 -10z m-645 -20 c-3 -5 -13 -10 -21 -10 -8 0 -14 5 -14 10
0 6 9 10 21 10 11 0 17 -4 14 -10z m392 -37 l26 -28 -7 27 c-6 25 -4 27 16 19
34 -12 35 -39 2 -51 -36 -14 -43 -10 -60 28 -16 39 -11 40 23 5z m123 18 c0
-6 -4 -13 -10 -16 -5 -3 -10 1 -10 9 0 9 5 16 10 16 6 0 10 -4 10 -9z m-163
-58 c-9 -9 -19 -14 -23 -11 -10 10 6 28 24 28 15 0 15 -1 -1 -17z m-78 -4 c11
18 31 5 31 -20 0 -25 -22 -34 -50 -19 -14 8 -25 8 -29 2 -10 -15 -49 -24 -56
-12 -5 8 -11 7 -22 -2 -13 -10 -15 -9 -12 7 3 11 14 21 26 23 12 2 27 9 33 17
8 10 17 11 41 2 24 -9 32 -9 38 2z m1611 -5 c0 -8 -5 -12 -10 -9 -6 4 -8 11
-5 16 9 14 15 11 15 -7z m-253 -67 c-6 -19 -22 -6 -25 20 -2 27 -2 27 13 8 8
-10 14 -23 12 -28z m-1540 17 c7 -19 -34 -55 -54 -47 -7 3 -16 -2 -19 -11 -3
-9 -10 -13 -15 -10 -5 3 -9 0 -9 -6 0 -7 -7 -9 -16 -6 -15 6 -72 -19 -86 -38
-9 -13 -78 -17 -78 -5 0 5 8 12 18 15 9 4 33 13 52 22 19 9 38 15 43 14 4 -1
7 5 7 14 0 13 7 15 30 11 23 -5 30 -3 30 9 0 10 6 14 15 11 8 -4 17 -2 21 4 3
6 12 8 20 5 9 -3 14 2 14 14 0 24 18 26 27 4z m586 -101 c8 -10 19 -31 23 -48
6 -26 5 -28 -8 -17 -13 10 -17 10 -21 0 -3 -11 -8 -11 -26 0 -19 11 -21 10
-21 -10 0 -17 -3 -19 -12 -10 -17 17 -31 15 -24 -3 6 -17 -9 -21 -19 -5 -8 13
-25 13 -25 -1 0 -11 -25 -39 -35 -39 -10 0 -44 43 -45 56 0 6 12 17 26 24 22
12 27 12 34 0 8 -12 10 -12 10 4 0 13 5 17 20 13 10 -3 21 0 23 7 3 8 9 7 20
-3 15 -12 17 -11 17 12 0 19 4 25 15 21 8 -4 15 -1 15 5 0 16 15 13 33 -6z
m-212 -105 c10 -13 18 -28 19 -35 0 -15 -35 -35 -44 -26 -3 4 -13 -2 -21 -13
-8 -10 -15 -14 -15 -9 0 6 -5 3 -10 -5 -8 -13 -13 -13 -32 -1 -18 10 -20 10
-10 0 19 -21 14 -32 -12 -25 -21 5 -23 3 -19 -15 5 -17 2 -20 -13 -15 -14 4
-24 -2 -39 -23 -10 -16 -23 -27 -27 -25 -4 3 -15 -4 -25 -16 -21 -25 -39 -26
-53 -2 -8 14 -9 12 -4 -10 7 -30 -4 -36 -25 -15 -10 10 -11 6 -5 -17 5 -20 3
-27 -4 -22 -6 3 -14 1 -17 -5 -4 -5 -13 -8 -21 -5 -8 3 -11 0 -8 -8 8 -21 -17
-31 -31 -13 -17 24 -28 21 -15 -4 18 -32 5 -33 -24 -2 -14 15 -26 24 -26 20 0
-5 7 -15 15 -23 17 -17 21 -49 5 -39 -6 4 -20 -5 -31 -19 -27 -34 -41 -33 -63
5 -22 37 -14 49 15 23 l21 -19 -7 33 c-7 35 1 41 21 15 7 -10 14 -13 14 -6 0
6 -4 15 -10 18 -15 9 -12 25 5 25 8 0 15 5 15 10 0 6 7 10 15 10 8 0 15 5 15
10 0 16 22 12 36 -7 13 -17 13 -17 14 0 0 9 -4 17 -10 17 -5 0 -10 5 -10 11 0
6 9 9 20 6 17 -4 20 -2 14 15 -5 17 -3 19 12 10 14 -8 20 -6 29 11 6 12 24 28
39 36 26 12 31 12 41 -3 18 -23 27 -20 13 5 -11 17 -10 22 6 35 11 8 26 14 33
14 7 0 13 7 13 15 0 17 29 34 48 28 6 -3 12 2 12 10 0 10 7 13 20 10 12 -3 20
0 20 7 0 8 9 7 27 -6 l28 -17 -18 26 c-17 26 -17 27 2 27 11 0 23 5 26 10 9
15 15 13 36 -12z m-811 -51 c0 -13 -39 -41 -47 -34 -5 6 28 45 40 46 4 1 7 -5
7 -12z m240 -17 c0 -11 -4 -20 -9 -20 -5 0 -7 9 -4 20 3 11 7 20 9 20 2 0 4
-9 4 -20z m-287 -31 c27 -39 36 -79 17 -79 -5 0 -10 6 -10 13 0 8 -3 7 -10 -3
-8 -12 -12 -11 -32 7 -20 19 -25 19 -37 6 -7 -8 -22 -12 -32 -10 -14 4 -19 0
-19 -14 0 -11 -8 -23 -17 -26 -10 -4 -27 -18 -37 -31 l-19 -24 -17 22 c-16 22
-16 24 1 41 11 11 25 19 33 19 7 0 26 12 41 26 15 14 37 26 49 27 11 1 26 8
33 17 7 8 13 11 13 5 0 -5 4 -3 10 5 5 9 5 19 -2 27 -6 7 -7 13 -2 13 5 -1 21
-19 37 -41z m84 -55 c-3 -3 -12 -4 -19 -1 -8 3 -5 6 6 6 11 1 17 -2 13 -5z
m-118 -60 c-16 -20 -33 -3 -24 25 6 19 8 19 22 6 12 -13 13 -18 2 -31z m2765
1 c3 -8 1 -15 -4 -15 -6 0 -10 7 -10 15 0 8 2 15 4 15 2 0 6 -7 10 -15z
m-2796 -35 c10 -17 16 -19 34 -9 18 10 24 8 35 -7 7 -10 13 -13 13 -5 0 13 24
41 34 41 3 0 6 -6 6 -14 0 -7 7 -19 15 -26 16 -13 10 -34 -7 -24 -6 4 -8 -1
-3 -15 4 -15 2 -21 -8 -21 -11 0 -13 -7 -9 -22 4 -17 2 -20 -11 -15 -19 7 -22
-4 -6 -20 12 -12 4 -33 -12 -33 -5 0 -9 7 -9 15 0 8 -4 15 -9 15 -4 0 -6 -12
-3 -27 4 -21 2 -25 -11 -20 -9 3 -16 3 -14 -1 1 -4 -2 -8 -7 -9 -5 -1 -12 -7
-17 -14 -4 -8 -29 -15 -55 -16 -65 -3 -80 -9 -64 -28 8 -10 18 -11 36 -4 33
12 34 12 34 -10 0 -20 -25 -35 -41 -25 -6 3 -21 -1 -34 -10 -32 -21 -35 -20
-35 7 0 13 -7 32 -15 43 -19 25 -19 48 1 65 9 7 20 24 25 36 5 13 18 27 30 31
19 7 19 9 5 21 -22 18 -20 31 4 31 11 0 20 7 20 15 0 10 7 15 18 13 12 -2 20
7 27 30 11 37 16 39 33 12z m372 -149 c-1 -14 -37 -47 -64 -59 -16 -7 -26 -16
-22 -19 3 -3 -4 -11 -17 -18 -18 -9 -25 -8 -35 4 -11 14 -12 11 -6 -19 3 -19
3 -32 -1 -28 -4 4 -17 -4 -29 -17 -16 -18 -26 -21 -39 -14 -19 11 -24 49 -6
49 6 0 8 8 4 19 -4 14 0 23 13 30 11 6 22 7 26 4 3 -3 6 1 6 10 0 19 15 23 25
7 4 -6 11 -8 16 -4 6 3 5 12 -3 21 -11 14 -10 15 10 9 16 -6 22 -3 22 8 0 21
10 20 26 -1 12 -16 13 -14 7 17 -6 32 -5 34 10 21 15 -12 17 -11 17 10 l1 24
19 -24 c11 -13 20 -26 20 -30z m2627 -12 c27 -52 28 -59 8 -59 -8 0 -15 8 -15
18 0 10 -9 35 -19 55 -11 21 -14 36 -8 34 6 -2 21 -23 34 -48z m-1007 -36 c0
-29 -15 -61 -24 -53 -4 5 16 80 21 80 2 0 3 -12 3 -27z m80 -2 c0 -17 -4 -33
-10 -36 -6 -4 -10 8 -10 29 0 20 5 36 10 36 6 0 10 -13 10 -29z m-44 -8 c-10
-10 -19 5 -10 18 6 11 8 11 12 0 2 -7 1 -15 -2 -18z m-156 -4 c0 -28 -19 -61
-31 -54 -8 6 -3 47 8 68 8 15 23 6 23 -14z m31 -46 c-16 -29 -24 8 -9 43 l12
29 4 -27 c2 -15 -1 -35 -7 -45z m51 42 c-7 -23 -21 -35 -23 -17 -1 18 10 42
19 42 6 0 7 -10 4 -25z m-170 -45 c-2 -17 -8 -30 -12 -30 -8 0 -11 60 -3 73
10 16 20 -12 15 -43z m-32 10 c0 -10 -5 -22 -10 -25 -13 -8 -24 20 -16 41 8
20 26 9 26 -16z m-64 11 c20 17 24 9 14 -31 -4 -19 -8 -27 -9 -18 -2 31 -21
30 -27 -1 -7 -35 -21 -34 -19 1 2 31 17 66 23 50 3 -10 7 -10 18 -1z m344 5
c0 -3 -4 -8 -10 -11 -5 -3 -10 -1 -10 4 0 6 5 11 10 11 6 0 10 -2 10 -4z
m1000 -26 c7 -13 7 -20 1 -20 -6 0 -15 9 -21 20 -7 13 -7 20 -1 20 6 0 15 -9
21 -20z m-1412 -32 c-2 -24 -9 -43 -17 -46 -10 -4 -12 2 -7 22 4 15 3 32 -1
39 -5 7 -10 -6 -14 -33 -5 -45 -5 -45 -17 -17 -17 40 3 69 51 76 5 0 7 -18 5
-41z m-78 13 c0 -11 -5 -32 -11 -48 -14 -35 -23 -15 -15 33 7 36 26 47 26 15z
m-45 -21 c3 -5 2 -10 -4 -10 -5 0 -13 5 -16 10 -3 6 -2 10 4 10 5 0 13 -4 16
-10z m-75 -11 c0 -8 5 -7 16 2 10 8 18 9 22 3 4 -6 15 -13 25 -17 19 -7 24
-37 5 -37 -6 0 -20 -8 -31 -17 -19 -18 -20 -17 -13 9 3 15 2 29 -4 33 -5 3
-12 -6 -16 -20 -6 -24 -24 -35 -24 -14 0 5 -4 7 -10 4 -5 -3 -10 -15 -10 -26
0 -10 -6 -19 -13 -19 -9 0 -14 14 -15 42 -2 33 1 39 10 30 20 -20 38 -14 38
13 0 14 5 25 10 25 6 0 10 -5 10 -11z m-1502 -41 c-3 -7 -11 -13 -18 -13 -7 0
-15 6 -17 13 -3 7 4 12 17 12 13 0 20 -5 18 -12z m1422 -34 c0 -32 -4 -44 -12
-41 -7 2 -17 -2 -23 -9 -5 -8 -21 -15 -35 -16 -22 -3 -25 1 -28 36 -3 32 -1
38 12 33 12 -5 16 0 17 16 0 18 4 16 17 -13 15 -34 16 -34 19 -10 10 66 33 69
33 4z m-120 -27 c0 -13 5 -28 11 -34 13 -13 2 -36 -13 -27 -6 4 -14 1 -18 -6
-7 -11 -11 -10 -24 3 -23 23 -20 60 7 73 33 17 37 16 37 -9z m-75 -35 c1 -9 7
-27 13 -39 11 -21 10 -23 -20 -31 -18 -5 -36 -7 -40 -5 -11 6 3 64 21 84 17
20 24 18 26 -9z m-61 -68 c6 -28 4 -32 -26 -45 -18 -7 -41 -24 -52 -37 -10
-13 -24 -21 -31 -18 -7 2 -21 -6 -31 -20 -11 -13 -23 -24 -28 -24 -5 0 -19
-11 -32 -25 -13 -14 -27 -25 -32 -25 -5 0 -15 -11 -22 -25 -7 -14 -19 -25 -27
-25 -7 0 -18 -9 -25 -20 -18 -28 -26 -25 -43 16 -8 19 -19 33 -25 29 -5 -3
-10 1 -10 10 0 11 9 15 33 13 17 -1 37 -5 43 -10 8 -6 10 0 7 17 -6 31 24 66
38 44 6 -10 9 -7 9 12 0 15 7 32 15 39 13 11 18 10 28 -4 12 -16 13 -15 12 11
0 17 5 27 13 26 6 -2 12 4 12 12 0 18 12 19 28 3 9 -9 12 -8 12 5 0 9 7 17 15
17 8 0 15 8 15 17 0 13 3 14 12 5 17 -17 31 -15 24 4 -9 22 3 37 19 24 9 -8
14 -5 19 12 5 19 8 20 15 8 5 -8 12 -29 15 -46z m-354 -259 c0 -7 2 -19 5 -27
7 -20 -33 -66 -43 -50 -6 8 -13 1 -22 -23 -17 -43 -28 -41 -44 6 -13 37 -11
63 5 53 5 -3 9 0 9 7 0 7 8 9 21 6 15 -4 19 -1 17 11 -4 20 21 42 39 35 7 -3
13 -11 13 -18z m855 -66 c6 -4 28 -10 50 -13 52 -7 115 -29 115 -39 0 -12 82
-92 100 -99 10 -4 5 -10 -17 -18 -18 -7 -33 -16 -33 -20 0 -5 -21 -2 -47 6
-69 21 -250 28 -378 15 -104 -10 -110 -10 -129 9 -19 18 -19 20 -3 38 9 10 14
22 10 27 -5 4 -3 5 4 1 6 -3 14 -2 17 3 3 5 16 7 28 3 17 -4 20 -2 15 12 -6
14 -3 16 14 11 18 -6 19 -5 10 13 -16 31 -14 33 23 26 27 -5 40 -1 58 15 19
18 33 21 88 19 36 -1 70 -5 75 -9z m-969 -35 c9 -22 12 -39 6 -43 -36 -23 -62
-48 -62 -59 0 -13 -47 -57 -60 -57 -4 0 -14 -8 -24 -17 -23 -24 -63 -23 -76 1
-16 30 -12 36 10 16 19 -18 20 -17 20 4 0 12 4 19 10 16 6 -3 10 2 10 12 1 17
1 17 15 -1 14 -18 15 -18 22 -1 4 11 2 20 -5 23 -7 2 -12 8 -12 14 0 6 7 8 15
4 9 -3 15 0 15 10 0 8 5 12 10 9 6 -3 10 3 10 14 0 12 5 21 10 21 6 0 10 7 10
17 0 14 2 14 20 -2 11 -10 20 -13 20 -7 0 6 -4 14 -10 17 -16 10 -12 28 5 21
9 -3 15 0 15 9 0 25 10 17 26 -21z m3617 -8 c12 -8 50 -17 84 -21 86 -10 71
-23 -22 -19 -85 3 -95 7 -95 35 0 23 4 23 33 5z m-3003 -126 c0 -5 -4 -10 -10
-10 -5 0 -10 5 -10 10 0 6 5 10 10 10 6 0 10 -4 10 -10z m2663 -32 c18 -12 34
-23 37 -25 2 -2 -2 -8 -10 -13 -27 -18 -100 -9 -100 11 0 4 6 6 14 3 14 -6 30
22 20 37 -9 15 6 10 39 -13z m-2223 -8 c80 -11 109 -31 130 -85 11 -30 11 -30
-65 -4 -76 26 -210 48 -252 42 -17 -3 -48 0 -68 7 -32 11 -35 14 -23 27 15 15
123 31 173 26 17 -1 64 -7 105 -13z m-1254 -35 c28 0 27 -20 -2 -48 -35 -35
-60 -34 -79 3 -14 27 -14 30 0 30 8 0 15 5 15 11 0 19 24 3 32 -22 5 -16 6
-12 3 16 -3 27 -1 35 5 25 5 -8 17 -15 26 -15z m3684 0 c-7 -8 -20 -15 -29
-14 -11 0 -9 3 7 9 12 5 22 15 22 21 0 7 3 9 6 6 4 -4 1 -13 -6 -22z m-3770
-59 c0 -3 -7 -6 -15 -6 -13 0 -15 -8 -9 -37 6 -36 5 -37 -10 -17 -12 17 -13
28 -4 57 9 30 13 33 24 22 8 -7 14 -16 14 -19z m3780 4 c-20 -13 -43 -13 -35
0 3 6 16 10 28 10 18 0 19 -2 7 -10z m75 0 c3 -5 -3 -10 -14 -10 -12 0 -21 5
-21 10 0 6 6 10 14 10 8 0 18 -4 21 -10z m-1227 -6 c14 -4 31 -23 44 -50 l20
-43 -33 -71 c-39 -86 -59 -106 -59 -62 0 23 -8 37 -32 55 -44 33 -91 56 -149
73 -53 16 -54 17 -39 44 19 36 182 71 248 54z m1266 -37 c-1 -12 6 -17 27 -17
16 0 29 -4 29 -8 0 -16 -68 -6 -89 12 -24 22 -18 38 12 34 14 -2 21 -10 21
-21z m-3884 -8 c0 -5 -4 -9 -10 -9 -5 0 -10 7 -10 16 0 8 5 12 10 9 6 -3 10
-10 10 -16z m3825 -29 c3 -5 1 -10 -4 -10 -6 0 -11 5 -11 10 0 6 2 10 4 10 3
0 8 -4 11 -10z m-3950 -10 c3 -5 1 -10 -4 -10 -6 0 -11 5 -11 10 0 6 2 10 4
10 3 0 8 -4 11 -10z m55 -30 c0 -5 -4 -10 -10 -10 -5 0 -10 5 -10 10 0 6 5 10
10 10 6 0 10 -4 10 -10z m2556 -45 c48 -28 64 -50 64 -89 0 -32 -4 -32 -38 -1
-30 28 -92 59 -141 70 -17 4 -35 14 -41 23 -7 13 -9 14 -10 3 0 -11 -3 -12
-11 -4 -44 44 102 42 177 -2z m883 21 c9 -8 32 -17 51 -21 19 -4 41 -11 50
-16 8 -4 41 -20 74 -35 37 -17 54 -29 46 -34 -7 -4 25 -10 71 -13 86 -5 212
-30 233 -45 6 -5 38 -12 71 -16 77 -9 135 -24 135 -37 0 -5 -16 -7 -40 -3 -25
4 -45 2 -54 -5 -12 -10 -33 -9 -98 4 -46 9 -103 21 -128 25 -84 15 -208 60
-214 77 -6 14 -18 15 -89 10 -46 -3 -95 -11 -109 -17 -21 -10 -33 -8 -74 14
-80 41 -140 85 -123 89 7 3 32 11 54 19 54 19 125 21 144 4z m166 -177 c-4 -5
-13 -9 -22 -9 -13 0 -13 3 -3 15 13 15 35 11 25 -6z m609 6 c-4 -8 -10 -15
-15 -15 -5 0 -9 7 -9 15 0 8 7 15 15 15 9 0 12 -6 9 -15z m-537 -12 c-4 -3 -1
-13 6 -21 10 -13 8 -15 -13 -9 -14 4 -33 7 -42 7 -10 0 -18 4 -18 9 0 10 22
18 54 20 11 0 16 -2 13 -6z m-855 -35 c-8 -8 -9 -4 -5 13 4 13 8 18 11 10 2
-7 -1 -18 -6 -23z m569 -9 c16 -8 18 -13 8 -25 -6 -8 -19 -14 -29 -14 -20 0
-53 33 -43 43 10 10 42 8 64 -4z m362 -6 c-7 -2 -19 -2 -25 0 -7 3 -2 5 12 5
14 0 19 -2 13 -5z m-326 -39 c-3 -3 -12 -4 -19 -1 -8 3 -5 6 6 6 11 1 17 -2
13 -5z m-296 -39 c-1 -15 -24 -12 -29 3 -3 9 2 13 12 10 10 -1 17 -7 17 -13z
m331 -61 c26 -13 58 -24 70 -25 23 0 23 0 -2 -11 -14 -6 -42 -22 -63 -36 -36
-24 -38 -24 -56 -8 -11 10 -17 25 -14 33 9 24 -18 33 -45 15 -21 -13 -32 -14
-83 -3 -33 6 -63 9 -68 6 -5 -2 -21 1 -35 9 -22 11 -24 15 -11 20 9 3 33 6 54
6 20 0 41 4 47 9 28 28 138 20 206 -15z m-542 -34 c25 -6 55 -12 66 -15 12 -3
24 -14 27 -25 4 -15 13 -20 36 -20 18 0 40 -9 52 -21 l20 -20 -24 -20 c-14
-10 -30 -19 -36 -19 -19 0 -49 -32 -44 -46 7 -18 -40 -19 -59 -1 -7 7 -41 13
-78 13 -87 2 -168 23 -176 46 -3 10 -14 18 -24 18 -14 0 -17 5 -13 21 6 21 7
21 19 4 11 -14 18 -15 46 -7 18 6 77 13 132 16 78 4 101 9 112 23 7 10 14 21
14 26 0 12 -34 7 -54 -8 -21 -16 -91 -21 -100 -7 -10 16 6 52 23 52 9 0 36 -5
61 -10z m777 -30 c21 -11 48 -20 60 -20 12 0 25 -4 28 -10 3 -5 27 -10 52 -10
l46 0 -29 26 c-26 23 -27 25 -6 19 13 -4 22 -2 22 4 0 6 9 11 20 11 11 0 20
-5 20 -12 0 -8 3 -9 11 -1 6 6 26 7 51 3 23 -5 47 -6 54 -3 7 3 10 -4 7 -20
-4 -22 -8 -23 -63 -20 -35 2 -61 -1 -65 -7 -11 -18 0 -22 53 -23 44 -1 49 -3
44 -21 -9 -40 -22 -47 -71 -41 -68 9 -155 26 -166 33 -5 3 -27 5 -48 3 -21 -1
-45 3 -54 10 -8 7 -32 12 -52 10 -26 -1 -42 3 -52 15 -12 15 -11 19 10 33 19
12 62 32 89 40 1 1 19 -8 39 -19z m-337 -22 c0 7 5 10 11 6 16 -10 -6 -28 -26
-20 -9 3 -13 11 -9 17 4 8 9 7 15 -2 7 -11 9 -11 9 -1z m177 -14 c-3 -3 -12
-4 -19 -1 -8 3 -5 6 6 6 11 1 17 -2 13 -5z m-267 -45 c9 -15 18 -19 35 -15 29
7 67 -6 94 -33 21 -21 85 -32 176 -29 82 2 178 -19 171 -38 -3 -9 4 -16 19
-20 14 -3 25 -10 25 -15 0 -5 14 -9 30 -9 20 0 30 5 30 15 0 20 63 20 80 0 10
-12 9 -16 -4 -21 -9 -4 -16 -18 -16 -34 0 -43 -47 -55 -77 -20 -20 23 -35 25
-63 8 -15 -9 -24 -9 -44 1 -13 8 -31 11 -39 8 -9 -3 -44 1 -79 9 -34 8 -72 13
-83 10 -21 -5 -109 14 -121 27 -4 4 -23 7 -41 7 -19 0 -43 4 -53 10 -10 5 -50
12 -89 14 -39 3 -79 10 -90 16 -11 5 -33 10 -50 10 -16 0 -33 5 -36 10 -3 6 3
10 14 10 12 0 21 4 21 9 0 7 52 34 70 36 24 3 52 20 60 36 14 25 46 24 60 -2z
m-560 -179 c0 -5 -5 -10 -11 -10 -5 0 -7 5 -4 10 3 6 8 10 11 10 2 0 4 -4 4
-10z m80 -10 c0 -13 -20 -13 -40 0 -12 8 -9 10 13 10 15 0 27 -4 27 -10z m570
-26 c12 -12 10 -14 -19 -14 -37 0 -74 17 -66 30 8 12 66 1 85 -16z m-285 -3
c3 -5 1 -12 -4 -15 -12 -8 -41 3 -41 15 0 12 37 12 45 0z m335 -5 c0 -3 -4 -8
-10 -11 -5 -3 -10 -1 -10 4 0 6 5 11 10 11 6 0 10 -2 10 -4z m161 -16 c5 0 9
-4 9 -10 0 -12 -47 -13 -54 -1 -8 12 6 22 22 16 7 -3 18 -5 23 -5z m44 -10 c3
-5 -1 -10 -9 -10 -9 0 -16 5 -16 10 0 6 4 10 9 10 6 0 13 -4 16 -10z m170 -21
c5 -5 -14 -9 -47 -9 -61 0 -88 7 -88 22 0 12 120 0 135 -13z m-735 1 c0 -5 -4
-10 -10 -10 -5 0 -10 5 -10 10 0 6 5 10 10 10 6 0 10 -4 10 -10z m814 -9 c9
-14 -24 -22 -45 -11 -10 6 -19 13 -19 15 0 9 59 5 64 -4z m-3994 -907 c-19 -8
-45 -27 -57 -42 -24 -30 -28 -26 -13 12 6 16 21 29 42 35 51 14 67 12 28 -5z
m4030 -76 c10 -6 1 -7 -28 -3 -40 5 -42 4 -30 -15 10 -16 10 -25 -5 -49 -20
-35 -21 -44 -4 -38 7 2 16 -10 22 -27 8 -25 17 -32 45 -37 l35 -5 -35 -11
c-37 -11 -70 -2 -70 20 -1 7 -14 28 -30 47 -32 37 -39 70 -15 70 8 0 17 11 21
25 11 43 48 52 94 23z m-3660 -37 c0 -5 -7 -12 -16 -15 -24 -9 -28 -7 -14 9
14 17 30 20 30 6z m30 -56 c15 -18 -8 -45 -39 -45 -11 0 -23 -5 -26 -10 -4 -6
-15 -8 -26 -5 -10 4 -19 2 -19 -4 0 -6 -7 -8 -15 -4 -25 9 -13 25 41 55 57 32
67 33 84 13z m3698 -3 c2 -7 -2 -10 -12 -6 -9 3 -16 11 -16 16 0 13 23 5 28
-10z m-3478 -2 c0 -5 -2 -10 -4 -10 -3 0 -8 5 -11 10 -3 6 -1 10 4 10 6 0 11
-4 11 -10z m3255 -42 c-9 -41 -25 -60 -25 -29 0 23 16 61 26 61 3 0 3 -15 -1
-32z m-3845 12 c-18 -12 -43 -13 -36 -2 2 4 15 8 28 9 18 2 19 0 8 -7z m-109
-51 c6 -26 6 -26 -25 -16 -17 5 -38 12 -46 14 -12 4 -11 7 5 19 29 21 57 14
66 -17z m4209 21 c13 -8 13 -10 -2 -10 -9 0 -20 5 -23 10 -8 13 5 13 25 0z
m-187 -75 c-5 -30 -3 -35 14 -35 12 0 26 -6 32 -14 10 -12 3 -14 -46 -13 -58
1 -58 1 -60 33 -1 26 4 34 30 46 18 9 33 16 34 17 1 0 -1 -15 -4 -34z m-3903
-225 c0 -5 -4 -10 -10 -10 -5 0 -10 5 -10 10 0 6 5 10 10 10 6 0 10 -4 10 -10z
m35 -10 c3 -5 -1 -10 -9 -10 -9 0 -16 5 -16 10 0 6 4 10 9 10 6 0 13 -4 16
-10z m295 -33 c0 -11 -1 -18 -2 -16 -2 2 -14 17 -28 32 l-25 29 28 -13 c16 -7
27 -20 27 -32z m-265 23 c3 -5 1 -10 -4 -10 -6 0 -11 5 -11 10 0 6 2 10 4 10
3 0 8 -4 11 -10z m90 -20 c17 -7 14 -9 -13 -9 -20 -1 -31 3 -27 9 7 12 13 12
40 0z"/>
<path d="M971 3714 c0 -11 3 -14 6 -6 3 7 2 16 -1 19 -3 4 -6 -2 -5 -13z"/>
<path d="M815 3600 c3 -5 8 -10 11 -10 2 0 4 5 4 10 0 6 -5 10 -11 10 -5 0 -7
-4 -4 -10z"/>
<path d="M230 3485 c0 -8 5 -15 10 -15 6 0 10 7 10 15 0 8 -4 15 -10 15 -5 0
-10 -7 -10 -15z"/>
<path d="M450 3345 c0 -8 4 -15 10 -15 5 0 7 7 4 15 -4 8 -8 15 -10 15 -2 0
-4 -7 -4 -15z"/>
<path d="M1316 3065 c4 -8 8 -15 10 -15 2 0 4 7 4 15 0 8 -4 15 -10 15 -5 0
-7 -7 -4 -15z"/>
<path d="M620 2474 c0 -8 5 -12 10 -9 6 4 8 11 5 16 -9 14 -15 11 -15 -7z"/>
<path d="M3841 1717 c10 -23 17 -25 63 -24 61 2 67 19 11 29 -22 3 -50 9 -63
13 -21 7 -22 6 -11 -18z"/>
<path d="M3703 1723 c-18 -7 -16 -23 2 -23 8 0 15 7 15 15 0 8 -1 15 -2 14 -2
0 -9 -3 -15 -6z"/>
<path d="M2420 4429 c0 -18 2 -19 15 -9 15 12 12 30 -6 30 -5 0 -9 -10 -9 -21z"/>
<path d="M2820 4120 c0 -5 5 -10 10 -10 6 0 10 5 10 10 0 6 -4 10 -10 10 -5 0
-10 -4 -10 -10z"/>
<path d="M2870 4097 c0 -8 8 -21 18 -29 18 -16 52 -31 52 -23 0 9 -35 47 -52
56 -13 7 -18 6 -18 -4z"/>
<path d="M2616 3711 c-3 -5 -3 -23 0 -40 6 -28 8 -29 19 -15 11 15 14 16 33 2
12 -8 19 -17 16 -20 -3 -3 -1 -9 5 -13 6 -3 11 -1 11 6 0 6 11 22 24 34 l25
23 -47 12 c-26 7 -54 14 -64 16 -9 3 -19 1 -22 -5z"/>
<path d="M4247 2854 c-20 -21 31 -31 82 -17 23 6 23 7 5 14 -24 9 -79 11 -87
3z"/>
<path d="M4610 2810 c19 -13 30 -13 30 0 0 6 -10 10 -22 10 -19 0 -20 -2 -8
-10z"/>
<path d="M4690 2792 c0 -12 19 -26 26 -19 2 2 -2 10 -11 17 -9 8 -15 8 -15 2z"/>
<path d="M4683 2716 c3 -10 53 -29 105 -41 30 -6 32 -5 32 23 l0 29 -70 -1
c-38 -1 -69 -5 -67 -10z"/>
<path d="M1660 2330 c0 -5 7 -10 15 -10 8 0 15 5 15 10 0 6 -7 10 -15 10 -8 0
-15 -4 -15 -10z"/>
<path d="M1788 2283 c7 -3 16 -2 19 1 4 3 -2 6 -13 5 -11 0 -14 -3 -6 -6z"/>
<path d="M1834 2275 c22 -17 36 -19 36 -6 0 10 -24 21 -43 21 -7 0 -3 -7 7
-15z"/>
<path d="M2096 1585 c4 -8 11 -15 16 -15 6 0 5 6 -2 15 -7 8 -14 15 -16 15 -2
0 -1 -7 2 -15z"/>
<path d="M2130 1540 c0 -5 5 -10 10 -10 6 0 10 5 10 10 0 6 -4 10 -10 10 -5 0
-10 -4 -10 -10z"/>
<path d="M2200 1498 c0 -11 40 -34 83 -48 20 -6 37 -18 37 -26 0 -20 27 -17
39 4 14 27 86 27 139 0 49 -25 62 -19 38 16 -32 50 -69 61 -208 61 -71 0 -128
-3 -128 -7z"/>
<path d="M3770 1461 c0 -15 16 -22 34 -15 25 9 19 24 -9 24 -14 0 -25 -4 -25
-9z"/>
<path d="M3500 1450 c0 -5 7 -10 16 -10 8 0 12 5 9 10 -3 6 -10 10 -16 10 -5
0 -9 -4 -9 -10z"/>
<path d="M2396 1408 c-17 -66 7 -83 118 -80 43 1 83 5 88 8 6 4 27 8 47 9 51
4 112 19 141 36 l25 14 -27 3 c-19 2 -25 8 -21 18 7 19 -11 18 -27 -1 -7 -9
-20 -13 -28 -10 -19 7 -112 -23 -112 -37 0 -11 -59 -1 -77 14 -23 18 -87 48
-104 48 -9 0 -19 -10 -23 -22z"/>
<path d="M3783 1405 c-3 -10 -15 -15 -32 -13 -14 2 -27 -1 -29 -7 -2 -9 127
-24 148 -17 17 6 11 22 -8 22 -10 0 -27 7 -38 15 -25 19 -33 19 -41 0z"/>
<path d="M4284 1389 c-3 -6 -1 -16 5 -22 8 -8 11 -5 11 11 0 24 -5 28 -16 11z"/>
<path d="M4332 1368 c3 -7 13 -15 22 -16 12 -3 17 1 14 10 -3 7 -13 15 -22 16
-12 3 -17 -1 -14 -10z"/>
<path d="M3813 1118 c2 -7 11 -11 18 -9 8 3 26 5 42 4 15 0 27 4 27 8 0 5 -21
9 -46 9 -32 0 -44 -4 -41 -12z"/>
<path d="M3950 1120 c-13 -8 -12 -10 3 -10 9 0 17 5 17 10 0 12 -1 12 -20 0z"/>
<path d="M3433 1055 c-18 -13 -45 -21 -76 -24 -5 -1 -2 -7 5 -14 16 -16 165
-37 193 -27 18 7 18 8 -5 15 -40 12 -52 25 -39 41 9 11 7 14 -9 14 -11 0 -26
2 -34 5 -7 3 -23 -1 -35 -10z m57 -19 c0 -8 -4 -17 -9 -21 -12 -7 -24 12 -16
25 9 15 25 12 25 -4z"/>
<path d="M2200 1052 c-28 -10 0 -26 63 -39 28 -5 57 -22 57 -33 0 -6 -15 -8
-33 -6 -18 2 -41 -2 -52 -10 -10 -8 -26 -14 -34 -13 -11 0 -12 2 -3 6 6 2 12
11 12 19 0 11 -9 13 -40 8 -25 -4 -45 -2 -54 5 -10 9 -16 9 -21 1 -5 -8 -11
-8 -21 1 -11 9 -21 9 -39 1 -20 -9 -26 -8 -34 6 -8 14 -12 15 -22 5 -16 -16
-65 -17 -75 -2 -7 12 15 31 27 23 4 -2 9 3 13 11 4 13 -14 14 -134 11 -132 -4
-160 -8 -160 -25 0 -4 35 -13 78 -20 42 -7 118 -22 167 -32 50 -11 115 -24
145 -30 62 -12 175 -40 265 -65 45 -12 68 -14 90 -6 29 9 109 15 222 15 43 0
54 4 59 20 8 25 -13 48 -25 28 -7 -11 -25 -13 -75 -9 -46 4 -71 2 -83 -8 -24
-18 -43 -17 -57 2 -13 17 -42 20 -98 9 -41 -8 -88 0 -88 16 0 6 4 7 10 4 5 -3
18 -1 28 4 11 6 34 13 52 16 39 7 50 13 50 25 0 5 -7 7 -15 4 -23 -9 -79 16
-65 30 7 7 13 7 18 1 7 -10 92 -21 92 -12 0 3 -17 13 -37 23 -34 16 -152 26
-183 16z m-350 -32 c0 -5 -2 -10 -4 -10 -3 0 -8 5 -11 10 -3 6 -1 10 4 10 6 0
11 -4 11 -10z"/>
<path d="M3816 1041 c-4 -7 -5 -15 -2 -18 9 -9 19 4 14 18 -4 11 -6 11 -12 0z"/>
<path d="M4245 1020 c3 -5 8 -10 11 -10 2 0 4 5 4 10 0 6 -5 10 -11 10 -5 0
-7 -4 -4 -10z"/>
<path d="M2476 1011 c-4 -5 12 -9 36 -9 24 0 48 -2 55 -4 6 -2 13 2 15 7 4 13
-98 19 -106 6z"/>
<path d="M3275 1000 c4 -6 11 -8 16 -5 14 9 11 15 -7 15 -8 0 -12 -5 -9 -10z"/>
<path d="M3775 997 c-4 -10 -5 -21 -1 -24 10 -10 18 4 13 24 -4 17 -4 17 -12
0z"/>
<path d="M3030 990 c0 -5 5 -10 11 -10 5 0 7 5 4 10 -3 6 -8 10 -11 10 -2 0
-4 -4 -4 -10z"/>
<path d="M3610 990 c0 -5 7 -10 16 -10 8 0 12 5 9 10 -3 6 -10 10 -16 10 -5 0
-9 -4 -9 -10z"/>
<path d="M4040 975 c-17 -21 -9 -26 42 -28 49 -2 69 16 23 21 -16 2 -35 8 -41
13 -7 6 -16 4 -24 -6z"/>
<path d="M3855 970 c-3 -5 1 -10 9 -10 9 0 16 5 16 10 0 6 -4 10 -9 10 -6 0
-13 -4 -16 -10z"/>
<path d="M4246 961 c-4 -7 -5 -15 -2 -18 9 -9 19 4 14 18 -4 11 -6 11 -12 0z"/>
<path d="M2470 940 c0 -5 7 -10 16 -10 8 0 12 5 9 10 -3 6 -10 10 -16 10 -5 0
-9 -4 -9 -10z"/>
<path d="M3515 874 c-19 -19 -19 -19 23 -27 24 -5 32 -3 32 8 0 25 -36 37 -55
19z"/>
<path d="M3770 821 c0 -10 36 -21 44 -14 3 3 3 10 0 14 -7 12 -44 12 -44 0z"/>
<path d="M3078 803 c7 -3 16 -2 19 1 4 3 -2 6 -13 5 -11 0 -14 -3 -6 -6z"/>
<path d="M3140 801 c0 -11 39 -25 47 -18 3 3 2 10 -2 16 -8 13 -45 15 -45 2z"/>
<path d="M3986 771 c-11 -18 6 -41 31 -41 20 0 24 4 21 23 -3 23 -41 37 -52
18z"/>
<path d="M3976 713 c-11 -11 -6 -23 9 -23 8 0 15 4 15 9 0 13 -16 22 -24 14z"/>
<path d="M3798 506 c-26 -20 -22 -26 18 -26 28 0 35 3 32 17 -4 22 -28 27 -50
9z"/>
<path d="M3048 323 c7 -3 16 -2 19 1 4 3 -2 6 -13 5 -11 0 -14 -3 -6 -6z"/>
<path d="M2402 30 l-32 -30 100 0 c66 0 100 4 100 11 0 7 -10 9 -24 5 -19 -5
-29 0 -40 16 -15 21 -16 21 -16 3 -1 -19 -2 -19 -19 3 -24 28 -29 28 -69 -8z"/>
<path d="M4186 44 c-11 -28 5 -44 45 -44 46 0 48 5 12 33 -33 26 -50 29 -57
11z"/>
<path d="M4305 52 c-5 -4 -10 -17 -11 -29 0 -20 4 -23 43 -23 46 0 56 13 23
30 -11 6 -20 7 -20 3 0 -4 -6 1 -12 10 -7 9 -17 13 -23 9z"/>
<path d="M4728 36 c-32 -24 -21 -36 34 -36 l51 0 -23 25 c-26 28 -37 30 -62
11z"/>
<path d="M2600 15 c0 -12 14 -15 62 -15 73 0 67 15 -9 23 -42 5 -53 3 -53 -8z"/>
<path d="M1655 10 c-3 -5 -1 -10 4 -10 6 0 11 5 11 10 0 6 -2 10 -4 10 -3 0
-8 -4 -11 -10z"/>
<path d="M2793 3 c15 -2 37 -2 50 0 12 2 0 4 -28 4 -27 0 -38 -2 -22 -4z"/>
</g>
</svg>
